<svg width="16" height="16" viewBox="0 0 16 16" fill="none" xmlns="http://www.w3.org/2000/svg">
<g id="clarity:eye-line">
<path id="Vector" d="M14.9424 7.79112C13.4446 5.02224 10.818 3.34668 7.91132 3.34668C5.00465 3.34668 2.37354 5.02224 0.889093 7.79112L0.764648 8.00001L0.880204 8.21335C2.37798 10.9822 5.00465 12.6578 7.91132 12.6578C10.818 12.6578 13.4491 11.0045 14.9424 8.21335L15.058 8.00001L14.9424 7.79112ZM7.91132 11.7467C5.40909 11.7467 3.11132 10.3511 1.77798 8.00001C3.11132 5.6489 5.40909 4.25335 7.91132 4.25335C10.4135 4.25335 12.6846 5.65335 14.0402 8.00001C12.6846 10.3511 10.4091 11.7467 7.91132 11.7467V11.7467Z" fill="#464646" fill-opacity="0.55"/>
<path id="Vector_2" d="M8.03982 4.96438C7.43721 4.96877 6.84941 5.15166 6.35068 5.48992C5.85194 5.82819 5.46463 6.30667 5.23767 6.86493C5.01071 7.42319 4.95428 8.03618 5.07551 8.62649C5.19673 9.21681 5.49017 9.75795 5.91877 10.1816C6.34737 10.6052 6.8919 10.8923 7.48358 11.0067C8.07526 11.121 8.68756 11.0575 9.24314 10.824C9.79872 10.5906 10.2727 10.1977 10.6051 9.69508C10.9375 9.19244 11.1136 8.60256 11.1109 7.99993C11.1092 7.59879 11.0283 7.20194 10.8729 6.83212C10.7175 6.46229 10.4907 6.12677 10.2054 5.84478C9.92008 5.56278 9.58193 5.33986 9.21033 5.18878C8.83872 5.03771 8.44095 4.96145 8.03982 4.96438V4.96438ZM8.03982 10.1733C7.61416 10.1689 7.19928 10.0388 6.8473 9.7994C6.49531 9.56 6.22191 9.22192 6.06144 8.82764C5.90097 8.43336 5.86058 8.00045 5.94534 7.58329C6.0301 7.16612 6.23624 6.78331 6.53786 6.48291C6.83948 6.18252 7.22313 5.97795 7.64064 5.89489C8.05814 5.81184 8.49088 5.85399 8.8845 6.01607C9.27813 6.17815 9.61508 6.45293 9.85305 6.80589C10.091 7.15885 10.2194 7.57425 10.222 7.99993C10.2232 8.28642 10.1675 8.57029 10.0582 8.83509C9.94881 9.09989 9.78798 9.34034 9.58498 9.54251C9.38199 9.74467 9.14089 9.90453 8.87564 10.0128C8.6104 10.1211 8.3263 10.1756 8.03982 10.1733V10.1733Z" fill="#464646" fill-opacity="0.55"/>
</g>
</svg>
