<svg width="26" height="26" viewBox="0 0 26 26" fill="none" xmlns="http://www.w3.org/2000/svg">
<path d="M24.972 7.85007C24.9135 6.52172 24.6987 5.6085 24.3909 4.81717C24.0735 3.9772 23.5851 3.22518 22.9453 2.60002C22.3201 1.96513 21.5631 1.47179 20.7329 1.15931C19.937 0.851593 19.0285 0.636784 17.7002 0.578217C16.3619 0.514689 15.9371 0.5 12.5428 0.5C9.14863 0.5 8.72378 0.514689 7.39047 0.573257C6.06213 0.631824 5.1489 0.846824 4.35777 1.15435C3.51761 1.47179 2.76558 1.96017 2.14042 2.60002C1.50554 3.22518 1.01239 3.98216 0.699714 4.8124C0.391998 5.6085 0.177189 6.51676 0.118622 7.84511C0.0550947 9.18338 0.0404053 9.60823 0.0404053 13.0024C0.0404053 16.3967 0.0550947 16.8215 0.113662 18.1548C0.172229 19.4832 0.387229 20.3964 0.694944 21.1877C1.01239 22.0277 1.50554 22.7797 2.14042 23.4049C2.76558 24.0398 3.52257 24.5331 4.35281 24.8456C5.1489 25.1533 6.05717 25.3681 7.3857 25.4267C8.71882 25.4854 9.14386 25.4999 12.5381 25.4999C15.9323 25.4999 16.3571 25.4854 17.6905 25.4267C19.0188 25.3681 19.932 25.1533 20.7232 24.8456C22.4033 24.196 23.7316 22.8677 24.3812 21.1877C24.6887 20.3916 24.9037 19.4832 24.9623 18.1548C25.0209 16.8215 25.0356 16.3967 25.0356 13.0024C25.0356 9.60823 25.0306 9.18338 24.972 7.85007ZM22.7207 18.0571C22.6669 19.2781 22.4619 19.9374 22.2909 20.3769C21.8708 21.4661 21.0065 22.3304 19.9173 22.7505C19.4778 22.9215 18.8137 23.1265 17.5975 23.1801C16.2789 23.2389 15.8835 23.2534 12.5478 23.2534C9.21216 23.2534 8.81173 23.2389 7.49788 23.1801C6.27694 23.1265 5.61763 22.9215 5.17809 22.7505C4.63611 22.5502 4.14277 22.2328 3.74234 21.8176C3.32722 21.4123 3.00977 20.9239 2.80946 20.3819C2.63853 19.9424 2.43345 19.2781 2.37984 18.0621C2.32109 16.7435 2.30659 16.3478 2.30659 13.0122C2.30659 9.67652 2.32109 9.27609 2.37984 7.96243C2.43345 6.74149 2.63853 6.08218 2.80946 5.64264C3.00977 5.10047 3.32722 4.60732 3.7473 4.2067C4.1525 3.79158 4.64087 3.47414 5.18305 3.27402C5.62259 3.10309 6.28686 2.89801 7.50284 2.84421C8.82146 2.78564 9.21712 2.77095 12.5526 2.77095C15.8932 2.77095 16.2887 2.78564 17.6025 2.84421C18.8234 2.89801 19.4828 3.10309 19.9223 3.27402C20.4643 3.47414 20.9576 3.79158 21.358 4.2067C21.7732 4.61209 22.0906 5.10047 22.2909 5.64264C22.4619 6.08218 22.6669 6.74626 22.7207 7.96243C22.7793 9.28105 22.794 9.67652 22.794 13.0122C22.794 16.3478 22.7793 16.7385 22.7207 18.0571Z" fill="white"/>
<path d="M12.5423 6.58032C8.99675 6.58032 6.1201 9.45679 6.1201 13.0025C6.1201 16.5482 8.99675 19.4246 12.5423 19.4246C16.0879 19.4246 18.9644 16.5482 18.9644 13.0025C18.9644 9.45679 16.0879 6.58032 12.5423 6.58032ZM12.5423 17.1684C10.2421 17.1684 8.37636 15.3028 8.37636 13.0025C8.37636 10.7021 10.2421 8.83659 12.5423 8.83659C14.8426 8.83659 16.7081 10.7021 16.7081 13.0025C16.7081 15.3028 14.8426 17.1684 12.5423 17.1684Z" fill="white"/>
<path d="M20.7179 6.32646C20.7179 7.15441 20.0466 7.82574 19.2184 7.82574C18.3905 7.82574 17.7191 7.15441 17.7191 6.32646C17.7191 5.49832 18.3905 4.82718 19.2184 4.82718C20.0466 4.82718 20.7179 5.49832 20.7179 6.32646Z" fill="white"/>
</svg>
