<svg width="6" height="20" viewBox="0 0 6 20" fill="none" xmlns="http://www.w3.org/2000/svg">
<path d="M4.76776 0.73223C5.74406 1.70854 5.74406 3.29145 4.76776 4.26776C3.79145 5.24407 2.20854 5.24407 1.23223 4.26776C0.255923 3.29145 0.255923 1.70854 1.23223 0.73223C2.2085 -0.244077 3.79141 -0.244077 4.76776 0.73223Z" fill="white"/>
<path d="M4.76776 8.23228C5.74406 9.20859 5.74406 10.7915 4.76776 11.7678C3.79145 12.7441 2.20854 12.7441 1.23223 11.7678C0.255923 10.7915 0.255923 9.20859 1.23223 8.23228C2.2085 7.25597 3.79141 7.25597 4.76776 8.23228Z" fill="white"/>
<path d="M4.76776 15.7322C5.74406 16.7085 5.74406 18.2915 4.76776 19.2678C3.79145 20.2441 2.20854 20.2441 1.23223 19.2678C0.255923 18.2915 0.255923 16.7085 1.23223 15.7322C2.2085 14.7559 3.79141 14.7559 4.76776 15.7322Z" fill="white"/>
</svg>
